<?xml version="1.0" encoding="UTF-8"?>
<svg version="1.1" viewBox="0 0 2048 2048" width="1280" height="1280" xmlns="http://www.w3.org/2000/svg">
<path transform="translate(569,43)" d="m0 0h100l352 2 378 3 44 1 97 5 22 1 12 3 16 7 3 3v2l9 3 25 6 28 5 19 4 12 12 19 8 17 8 9 7 6 7 7 3 16 8 9 6 10 9 8 7 11 12 9 11 10 11 11 14 8 10 14 21 13 22 11 21 12 29 12 34 7 25 7 22 3 16 1 12 3 9 2 7 4 3 2 8-1 12-6 36-5 19-9 20 6-4 7-9 7-8 6-2v8l-6 32-9 37-14 58-12 45-14 47-11 33-11 29-13 29-9 19-12 21-16 29-10 18-10 14-16 24-11 16-11 14-11 13-13 16-11 14-15 16-15 15-8 7-17 16-10 9-8 7-12 11-17 14-9 7-16 12-17 12-42 26-12 7-16 8-45 22-20 8-16 6-27 13-15 6-12 3-4-1-5-1-7 3-31 9-19 3-7 3-9 7-6 8-3 7v10l4 9 8 10 7 7 10 17 10 18 17 28 13 22 12 20 13 24 16 32 12 22 16 28 17 28 12 19 15 24 17 28 15 26 14 24 14 25 10 17 14 25 12 21 15 27 9 16 17 29 17 28 16 25 12 21 9 19 4 13-4 4-14 3-284 1h-130l-3-7-4-12-8-18-12-22-11-21-9-16-14-25-15-27-14-26-13-22-15-24-13-22-14-25-33-64-13-23-16-27-12-19-14-23-14-24-12-23-12-22-16-31-12-22-12-23-12-22-13-23-11-20-2-12-4 1h-326l-3 4-9 25-7 23-12 43-12 46-18 65-10 37-10 36-15 55-12 42-11 41-8 29-15 55-9 32-17 62-8 27-6 15-5 7h-102l-245-1 2-9 4-12 7-25 20-68 15-53 35-126 14-51 15-53 23-83 14-51 18-65 20-74 18-66 17-63 29-107 51-187 16-57 10-38 13-47 12-44 13-47 9-34 7-24 17-62 20-72 11-40 13-47 18-65 24-89 12-46 14-57 10-41 6-9 10-5 5-1zm222 331-6 13-8 24-9 32-11 42-10 38-10 36-24 88-7 25-10 36-14 51-7 25-18 65-14 52-15 53-12 36-4 8v3l7-3h521l70-1 18-2 16-4 28-11 26-10 30-13 22-12 29-17 18-13 19-14 9-7 11-9 16-16 9-11 8-8 7-9 7-8 10-14 16-27 10-18 8-16 11-25 12-36 12-41 6-27 5-33v-12l-3-8-3 1-2 6 1 3-4 6-6 5v2l-4 1 3-9 10-17 3-8v-11l-3-16-9-21-10-21-16-26-12-17-14-15-9-8-16-10h6l11 7 10 9 5 1-2-4-12-10-19-12-24-14-34-14-15-4-24-3-35-2-39-1zm724 64m1 1 5 5 10 9 4 2 2 4 10 12 8 13 8 16 8 18 5 14 1-4-11-33-8-16-8-13-14-14-13-10-5-3zm21 32m1 1 1 2zm2 3m1 2m1 1m1 2m5 7m29 45 1 3zm-969 470-6 3-1 2 3 1 4-2 2-4z" fill="#076B3C"/>
<path transform="translate(547,53)" d="m0 0 35 1h317l170 1h52l80 1h62l20 1 7-1 9 1h33l1 2 2-2v2l6-1h4v2l3-1v2h30l4-2 3 1v2h7l4 2 9 2 4 1 5-1 2 3 9 3 13 1 8 2 6 5v2h-8l-6 2h-20l-7-1-12 3h-15l-11 1-6-1-4 1-4-1-28 1-5 1-9-1h-19l-17 2-2-1h-16l-3 1-11-1-17 1h-13l-5 1v1l-23-1h-32l-5 1v-1h-27l-8 1-10-2-1 2-1-1h-21l-8-1-5 1-6 1-10-1-14 1h-39l-9 1v1l-10 1-2-1v-2l-14 3-5-2-4 1h-12l-5-1-12-1h-3l1 2-16 1-4 1-9-1h-8-3l-8-1v1l-9 1-4-1v-2l-5 2-21 1-5-1-6 1h-19l-6 1-16-1h-25l-5-1h-19l-1 1h-25l-11-1-7 1-15-1-17-1-10 1h-12l-11-1-9-1h-14l-13 1h-8l-6 1-14 2-3 2-5 16-4 25-4 24-5 24-3 19-2 6-3 12-3 9-3 16-3 9-2 9-2 6-4 18-3 13-4 18-6 21-5 19-5 21-4 14-7 26-1 6-3 7-3 13-5 17-1 4-3 9-3 12-5 18-1 5-4 13-2 10-4 13-5 18-2 7-3 9-5 21-3 9-3 12-6 21-5 19-5 14v5l-1 1-2 10-5 13-2 11-7 24-8 30-4 16-3 9-3 11-8 27-3 10-6 24-7 22-5 21-6 21-3 10-6 21-4 16-7 25-4 13-2 10-3 12-2 9-6 20-5 17-5 21-6 18-4 18-3 12-4 11-4 16-4 15-4 16-5 21-5 15-4 18-2 5-7 25-7 26-6 21-8 30-3 11-2 9-7 24-3 11-3 9-6 22-2 6-2 8-12 43-5 15-3 12-7 25-6 21-2 8-6 21-4 13-3 12-5 18-1 4-6 19-7 27-6 18-7 25-6 17-2 6-2 4-3 12-5 11-1 7h-2l-2 5-4 9-3 5-3 7-4 9-2 1-2 7h-3l-2 14-4 5-2 5-1 7-3 2v6l-3 1-1 5 3 1 2 5 2 4 3 3 3 7 6 4v2h2l4 5-1 3 3 2-3 1-3-1 1 4 2 5-5 2-6 1-13 1h-22l-10-1-5-5v-7l6-25 4-12 2-11 1-1 3-14 11-40 10-38 9-34 7-26 13-48 5-18h2v-7l11-40 8-29 7-26 11-39 7-26 16-57 12-44 7-24 7-26 2-12 10-36h2l2-10 12-43 7-25 13-48 10-36 7-25 9-32 7-25 13-48 7-24 10-38 12-42 12-44 7-25 14-51 12-44 15-54 10-35 9-34 12-43 7-25 12-44 13-47 18-66 10-36 13-48 2-7 2-11 2-7h2l2-10 13-47 8-28 14-50 5-19 4-16 3-9 4-14 3-11 2-5 2-10 2-4h2l2-6 5-5z" fill="#00562A"/>
<path transform="translate(569,43)" d="m0 0h100l352 2 378 3 44 1 37 2-1 6-1 2-13-1-33-3-6-1v-2h-14l-34-1-266-1h-567l-2 7-4 8-2 1-2 6-2 11-3 8-2 9-6 18-4 16-11 41-9 32-15 52-7 26-1 3h-2l-2 10-2 11-8 30-15 55-10 36-12 44-14 50-9 34-7 24-14 51-10 37-11 39-15 54-8 30-11 39-7 25-11 41-24 86-7 27-7 24-10 37-7 24-7 25-15 55-10 36-9 32-12 44-5 17h-2l-2 10-8 29-2 12-10 37-12 43-10 36-12 43-9 32-7 26-6 22-14 50-5 19-1 7h-2l-1 7-16 59-8 29-9 35-17 63-5 18-1 7-3 8h-2l-1 10-3 8-4 15-5 17 1 3 4 1 2 1h54l187 1 62 1 12-40 13-44 8-26 8-30 7-24 8-30 12-42 4-16 8-28 15-53 6-23 7-23 7-25 9-30 7-24 5-17 9-28 5-17 5-13 4-13 8-21 3-6 2-6 7-14 8-13 1-2h2l2-5 1-2h2l1-4 3-5 8-15h2v-2l6-5 8-3 10-2 24-1 34 1h79l45 1h70l11 1h11l31 4 7 2 5 10v2h2l1 3 2 2 2 4 2 3 3 7 5 8 4 8v2l4 4 5 12 11 19 8 13 9 16 14 22 18 28 4 8 3 3 7 12 2 7v8l-7 13-4-5-14-27-12-22-16-31-12-22-12-23-12-22-13-23-11-20-2-12-4 1h-326l-3 4-9 25-7 23-12 43-12 46-18 65-10 37-10 36-15 55-12 42-11 41-8 29-15 55-9 32-17 62-8 27-6 15-5 7h-102l-245-1 2-9 4-12 7-25 20-68 15-53 35-126 14-51 15-53 23-83 14-51 18-65 20-74 18-66 17-63 29-107 51-187 16-57 10-38 13-47 12-44 13-47 9-34 7-24 17-62 20-72 11-40 13-47 18-65 24-89 12-46 14-57 10-41 6-9 10-5 5-1z" fill="#238156"/>
<path transform="translate(774,415)" d="m0 0h2l-2 10-10 38-13 49-13 47-24 88-7 25-10 36-14 51-7 25-18 65-14 52-15 53-12 36-5 10 7-3h521l70-1 18-2 16-4 28-11 26-10 30-13 14-8h2l-1 9-9 6-21 9-4 4-19 10-11 4-24 5-9 3-5 1-13 3-6 2-7 1-3 2-13 4-5 1-29 2-30 2-32 1h-20l-20 1h-50l-8 1h-16l-4-1-13 1h-27l-4-1-3 1h-24l-2-1-8 1-10-1-4 1h-12l-5-1-9 1h-17l-2-1-3 1-9-1-24 1-9-1h-116l-13-1-11 1-12-1-5-1h-8l-7-1v-2h-5l-10-6-5-1v-3l-3-1-3-3-6-3 1-8 10-37 8-27 7-23 10-39 5-17 9-34 7-24 6-24 5-17 9-34 10-35 15-52 12-42 9-30 8-28 8-25 5-15 12-34 12-20h4l2-6 3-7z" fill="#248156"/>
<path transform="translate(1866,769)" d="m0 0 1 2-10 27-14 32-10 21-12 21-16 29-10 18-10 14-16 24-11 16-11 14-11 13-13 16-11 14-15 16-15 15-8 7-17 16-10 9-8 7-12 11-17 14-9 7-16 12-17 12-42 26-12 7-16 8-45 22-20 8-16 6-27 13-15 6-12 3-4-1-5-1-7 3-31 9-19 3-7 3-9 7-6 8-3 7v10l4 9 8 10 7 7 10 17 10 18 17 28 13 22 12 20 13 24 16 32 12 22 16 28 17 28 12 19 15 24 17 28 15 26 14 24 14 25 10 17 14 25 12 21 15 27 9 16 17 29 17 28 4 7-5 5-3 1-6-10-3-6v-2l-3-1-8-15v-3h-2l-4-8-4-1-3-4 1-3h-2l-3-5-3-8-6-8-9-14-6-8-2-1-4-10-9-12v-2l-4-2-1-4-3-1-6-10-6-7v-3h-2l-5-10-3-5v-3l-3-1-3-6-6-9-3-4v-3h-2l-2-5h-2v-3h-2l-1-4h-2v-4l-2-1-6-14-1-7 1 2 2 1 2 4 5 9-2-6-4-8-3-11-6-11-5-8-9-17-7-14-2-3-3-9-12-19-9-15-10-16-5-5-7-11v-2h-2l-4-7-6-6-2-5-4-6-4-5-2-5-4-4-3-4-3-6-10-14-3-8-2-2-1-4-5-7-2-2-6-11-3-5h-2l-5-8-1-6-9-14-8-13-2 1-5-9-5-10-4-5-6-11-10-19-7-14-3-7-2-3-1-10 2-16 3-6 1-7 3-3h2v-2l8-5h2v-2l6-2 14-4 4-1 17-4 20-4 13-5 12-5 9-4 9-3 4-2h5l1-1h3l1 1 4-1h8l4-1 4 1h1l-1-2 17-4 4-3 9-2 7-3 5-4 6-3h3v-2l13-5 8-4 6-2 8-3 4-2 9-6 5-4 11-4 21-9 16-9 15-10 11-7 9-7 15-13 16-16 10-8 8-7 7-8 9-6 5-6 8-7 10-11 7-7 4-7 2-3h2l2-6 6-5 1-3 3-1 4-9h3l2-4 3-1 2-4 1-3h2l1-4 5-6 5-2h4l2-4h2l2-5 3-7h2l2-5h2l1-7h2l4-8 2-1 1-3 4-3h3l2-5 3-6h2l1-4 4-5 4-2 7-9 7-12 3-9 11-27 5-10 11-28 6-15 6-12 6-2 2-5 4-6 3-7z" fill="#228155"/>
<path transform="translate(569,43)" d="m0 0h100l352 2 378 3 44 1 37 2-1 6-1 2-13-1-33-3-6-1v-2h-14l-34-1-266-1h-567l-2 7-4 8-2 1-2 6-2 11-3 8-2 9-6 18-4 16-11 41-9 32-15 52-7 26-1 3h-2l-2 10-2 11-8 30-15 55-10 36-12 44-14 50-9 34-7 24-14 51-10 37-11 39-15 54-8 30-11 39-7 25-11 41-24 86-7 27-7 24-10 37-7 24-7 25-15 55-10 36-9 32-12 44-5 17h-2l-2 10-8 29-2 12-10 37-12 43-10 36-12 43-9 32-7 26-6 22-14 50-5 19-1 7h-2l-1 7-16 59-8 29-9 35-17 63-5 18-1 7-3 8h-2l-1 10-3 8-4 15-4 12h-2l-1 5-3 7h-2v3l-3 3 103-1h150l56-1 9 1 1 4h-77l-245-1 2-9 4-12 7-25 20-68 15-53 35-126 14-51 15-53 23-83 14-51 18-65 20-74 18-66 17-63 29-107 51-187 16-57 10-38 13-47 12-44 13-47 9-34 7-24 17-62 20-72 11-40 13-47 18-65 24-89 12-46 14-57 10-41 6-9 10-5 5-1z" fill="#91B7A4"/>
<path transform="translate(774,415)" d="m0 0h2l-2 10-10 38-13 49-13 47-24 88-7 25-10 36-14 51-7 25-18 65-14 52-15 53-12 36-5 10 7-3h87v1h-86l1 3-16 2-3-4-6-3 1-8 10-37 8-27 7-23 10-39 5-17 9-34 7-24 6-24 5-17 9-34 10-35 15-52 12-42 9-30 8-28 8-25 5-15 12-34 12-20h4l2-6 3-7z" fill="#248256"/>
<path transform="translate(489,1335)" d="m0 0 3 3 3 9v7l-3 8-3 12-3 9-2 16-6 24-5 17-6 21-7 23-6 21-4 16-8 27-9 32-7 25-14 49-2 12-8 30-5 16-4 16-8 29-5 18-9 33-7 24-7 25-11 37-10 34-8 26h-11l-12-1-4-3-7-1-1-2 8-1 3-1 1-3 4-2 5-7-1-3 5-9v-7l3-1 2-5 2-4-1-2 6-17 2-9 3-7 3-14 3-8 4-11 3-15h2v-5l2-5 4-18h2l1-9 2-9 1-4 5-16 4-14 2-5 2-10 5-18 7-26 4-14 3-12 4-13 1-7h2l-1-4h2v-7l2-7 4-10 1-10 1-2h2l1-7 3-13 1-4 3-10 1-4 4-15 5-15 1-7 2-2v-6l4-9 3-13v-4h2l2-12 3-9-2-1 4-9 4-15 4-22 3-10 4-10 2-10 4-10 7-19 3-12 4-9 4-2z" fill="#00562A"/>
<path transform="translate(746,410)" d="m0 0h3l1 7h2v7l-4 15-2 6-2 11-5 18-6 21-3 16-4 8-2 10-3 8-2 11-6 20-2 10-3 9-4 14-3 10-4 15-7 24-16 56-8 30-4 13-4 16-14 51-6 23-7 24-15 55-7 25-8 27-7 25-1 1-7-1-1-3-4-2-1-4v-7l2-11 3-9 5-20 4-13v-2h2l2-7 3-12 6-20 4-14 1-5 5-16v-2h2l2-12 2-9 3-8 1-5 4-14 3-8-1-4 2-3 2-11 6-18 2-10 3-8 1-5 3-10 1-4 2-9h2l1-9 4-14 2-10 3-7 4-18 6-19 2-7 4-18 4-11 2-5v-3l4-12 3-12 1-6 5-19 4-13 3-16 4-15 6-24 1-5h2l-1-4 3-5 1-12h2l1-9 4-10 4-11 7-5z" fill="#00562A"/>
<path transform="translate(939,362)" d="m0 0h168l251 1 21 2 30 5 18 5 12 5 9 5 6 3 9 3 12 5 18 14 2 1v2l10 4 8 8 6 7v2h2l5 10-5-2-2-1 13 12 5 5 8 9 7 10 1 3h-2l4 10 7 10 1 6 2 2-1 3 2 1 2 14-2 13h-2l-9-21-10-21-16-26-12-17-14-15-11-9-14-9 2-1 7 1 11 8 10 8 3 1-5-6-15-11-28-17-16-8-30-12-12-3-24-3-35-2-39-1-513-1 2-5 5-5 12-1zm576 76m22 33m1 1 1 2z" fill="#258257"/>
<path transform="translate(516,138)" d="m0 0h1v7l-4 16-8 27-5 20-4 15-5 19-2 6v8l-4 9-1 4-3 13v3l-3 9-1 11-5 15-3 3-1 6h-2v5l1 2h-2l1 3h-2l-2 9-2 4v14l-3 6-1 7-2 2-2 1 1 3-2 7-1 2h-2l1 4-2 14-2 4-6 24-2 1-1 11h-2l-2 13-1 6-1 7-3 6-2 8-4 12-4 13-3 8v10l-4 9-4 7-1 9h-2l-2 18-4 12v4h-2l-1 9-3 10-1 7-3 10-4 16-3 7-1 7-3 5 1 2h-2l-1 5h-2l1 6-2 7-3 10h-2l1 7-5 12-2 5-2 9-3 12-1 5-1 7-2 2-1 9-1 5h-2l1 3-4 10-1 4h-2l1 5-3 9-2 2-1 12-3 7v2h-2l1 3-3 5-1 7-2 7-1 9-3 8-2 10h-2l-1 10-2 4v2h-2l-1 7-7 20-1 7-2 7v5h-2l-2 17-2 10-2 3-1 5-2 4-2 12-3 10-3 5-1 7h-2l-1 7-2 12-2 7-4 16-3 4-1 12-5 12h-2l1 3-1 2h2l-2 10-2 5-3 13-3 9-1 7-3 1 1 6-3 9-2 11-3 9-2 8-3 13-2 6-2 9-3 10-5 15h-2l1 3-3 3 2 1-2 5-1 3-2 10-2 2 1 4-2 5-2 7h-2v6l-3 2-2 9 2 1h-2v6h-2l-1 4 1 5-1 1v6l-3 7-2 9h-2l-1 11-2 5h-2v7l-4 15-3 11-3 9-3 4-2 6 1 2-3 12h-2l1 4-1 5-3 9-1 6-2 4 1 2h-3v4h-2l-1 8-2 18-2 5-3 14-3 9-2 9-3 6-4 16-3 15-4 10-3 6h-2l1 3h-2v5l-1 5v7l-4 19-2 9h-2l-1 6-2 5v1l-1 5-1 4-2 7-5 17-2 4-1 7-2 7h-3l1 4-2 2 1 2h-2l-1 6 1 2-2 4-1 8-3 3v11l-2 5-3-1v3l2 1-3 1-1 2h-2l-1 8-5 15h-2l2-10 11-41 5-18h2v-7l11-40 8-29 7-26 11-39 7-26 16-57 12-44 7-24 7-26 2-12 10-36h2l2-10 12-43 7-25 13-48 10-36 7-25 9-32 7-25 13-48 7-24 10-38 12-42 12-44 7-25 14-51 12-44 15-54 10-35 9-34 12-43 7-25 12-44 13-47 18-66 10-36 13-48 2-7 2-11 2-7h2l2-10 13-47 8-28 14-50z" fill="#0B6E40"/>
<path transform="translate(580,1302)" d="m0 0h14l24 1h79l45 1h70l11 1h11l31 4 7 2 5 10v2h2l1 3 2 2 2 4 2 3 3 7 5 8 4 8v2l4 4 5 12 11 19 8 13 9 16 14 22 18 28 4 8 3 3 7 12 2 7v8l-7 13-4-5-14-27-12-22-16-31-12-22-12-23-12-22-13-23-11-20-2-12-4 1h-326l-5 3h-2l2-5 1-2h2v-2l6-5 8-3 10-2z" fill="#228054"/>
<path transform="translate(1323,1386)" d="m0 0 3 3 17 28 11 19 12 22 16 32 12 22 16 28 17 28 12 19 15 24 17 28 15 26 14 24 14 25 10 17 14 25 12 21 15 27 9 16 17 29 17 28 4 7-5 5-3 1-6-10-3-6v-2l-3-1-8-15v-3h-2l-4-8-4-1-3-4 1-3h-2l-3-5-3-8-6-8-9-14-6-8-2-1-4-10-9-12v-2l-4-2-1-4-3-1-6-10-6-7v-3h-2l-5-10-3-5v-3l-3-1-3-6-6-9-3-4v-3h-2l-2-5h-2v-3h-2l-1-4h-2v-4l-2-1-6-14-1-7 1 2 2 1 2 4 5 9-2-6-4-8-3-11-6-11-5-8-9-17-7-14-2-3-3-9-12-19-9-15-10-16-7-11-3-7-12-21-13-21-7-12-6-11-8-16-5-9-3-6-2-6-4-7-6-19z" fill="#218054"/>
<path transform="translate(985,1533)" d="m0 0 4 2 5 5 4 7 9 14 3 3 4 7 14 21 6 10 11 17 14 22 7 12 7 15 5 11 1 4 3 1 5 10 5 7v2h2l10 25 4 9 3 12 7 12 1 6h5l3 4 8 17 8 18 8 13 6 10 12 19 7 12 10 16 6 10 3 7 13 23 11 21 7 9 1 6-2 9h3l3-4 26-2 22-1h64l98 1 56 1 15 2 2 4-167 1h-130l-3-7-4-12-8-18-12-22-11-21-9-16-14-25-15-27-14-26-13-22-15-24-13-22-14-25-33-64-13-23-16-27-12-19-14-23-2-5z" fill="#6AA085"/>
<path transform="translate(1576,59)" d="m0 0 14 6 3 3v2l9 3 25 6 28 5 19 4 12 12 19 8 17 8 9 7 6 7 7 3 16 8 9 6 10 9 8 7 11 12 9 11 10 11 11 14 8 10 14 21 13 22 11 21 12 29 12 34 7 25 7 22 3 16 1 12 3 9 2 7 4 3 2 8-1 12h-1l-1-7-4-1v-2h-2l-1-9-1-3-4-1-2-6 1-5v-18l-3-7-5-17-3-7-4-13-3-7-3-15-4-8-5-18-3-6-5-16-3-14-6-10-3-2-3-5-3-6-2-3-2 2-7-8-3-5-2-7-5-8-5-4-8-11-5-6-10-8-14-14-2-7 1-2-10-2-7-5v-3l-9 1-9-6-7-4-7-6-4-2v-2l-5-1-6-3-6-2-11-7-5-5-3-1v-2l-4-1v-2l-14-7-16-1-6-1v-2l-4-1-6-3-5-1-12-4-2-7 2-3-1-4v-2l-10-2-6-2-9-2-12-1v-2h-8l-11-3-1-4-2-1 1-3z" fill="#238155"/>
<path transform="translate(190,1296)" d="m0 0h2l1 9-11 39-2 12-10 37-12 43-10 36-12 43-9 32-7 26-6 22-14 50-5 19-1 7h-2l-1 7-16 59-8 29-9 35-17 63-5 18-1 7-3 8h-2l-1 10-3 8-4 15-4 12h-2l-1 5-3 7h-2v3l-3 3 103-1h150l56-1 9 1 1 4h-77l-245-1 2-9 4-12 7-25 20-68 15-53 35-126 14-51 15-53 23-83 14-51 18-65z" fill="#8FB7A3"/>
<path transform="translate(1184,1872)" d="m0 0 4 4 13 22 10 16 10 18 6 10 2 2 4 7 6 2v-2l9 1 4-1 13-1 81-1h142l3-2h7l5 1h6l4-4 7-1 6-2 10-3 5-4 1-2h5l1 1 21 1 6 4 10 2 9 5-4 1-1 3h2l2 4 2 1v3h4v3h17l4-5 5-13 1-1 2-28 1-3 14 27 6 17-2 4-9 3-7 1h-117l-2-4-15-1-56-1-98-1h-64l-39 2-9 1-3 4-4-1 2-10-2-6-7-10-12-23-13-22-3-8-5-8z" fill="#228155"/>
<path transform="translate(616,1276)" d="m0 0 13 1v2l9-2 4-1h17 2 17v2l10-1v-1h19v2l8-2h9v1h27l4 2 9 1 5 2h10l8 4h6l-1-3 7 1 1 2-4 2v4l-10 3-1 1-18 1-3 1-8-1-15 3-2-2h-10l-9 2h-1l-9-1h-11l-7 1-9-1-6 1-4-1h-9l-5-1-13 1-7-1h-12l-6-2v2l-34-1-20-1-8-2-3-2 1-5h2l2-4 10-4 23-1 1-1h12z" fill="#00562A"/>
<path transform="translate(1260,366)" d="m0 0h45l44 1 9 1 2 3-3 4 2 1-52-1-508-1 2-5 1-1 19-1h236z" fill="#96B9A8"/>
<path transform="translate(1930,514)" d="m0 0h2v8l-6 32-9 37-14 58-12 45-12 40h-1l1-16-1-1v-7l2-2 2-10 2-4 1-9 2-9-1-14-2-5v-17l1-15 1-9 1-4-4-2 1-5 1-3 2-1-1-4 3-1 1 1 1-2h-2l2-9 3-10 2-2 2-9 4-10 5-17h-2l1-3v2l6-4 7-9 7-8z" fill="#248256"/>
<path transform="translate(1789,183)" d="m0 0h2l4 6 14 14 9 7 11 14 5 5 7 10 2 8 4 6 5 3 2-1 1 3 2 2 2 5 8 10 4 7 4 17 5 16 3 7 4 14 4 8 4 19 4 8 3 11 3 7 6 19 1 2v18l-1 7 2 4 3 1 2 3 1 6-1 3h2v2l5 1v13l-5 30-5 19-5 11-1-3 3-10 2-11-1-2-1-9-2-4v-6l-2-7-1-6-3-10-1-5-1-10 2-3v-5l1-3v-8l-3-5-5-6-3-13-6-27-1-6v-9l-5-12-3-15-5-10-4-16h-2l-3-6-2-7-4-5-6-13v-2h-2l-1-4h-2l-2-8h-2l-7-10v-2h-2l-2-3v-4h-2l-3-7-2-1-2-8-4-2-3-3-2-5-3-3-7-8-8-9v-2l-3-1-5-8z" fill="#228155"/>
<path transform="translate(719,49)" d="m0 0h417l242 1 34 1 14 1v2l19 1 27 3 6 1 2-7h2l-2 7-3 2-8-1-7-1h-16l-8-2-11-1-16-1h-71l-261-1h-61l-99-1h-229l-56 1h-29l-42-1-16-1-2 5-4 2 4-9z" fill="#338961"/>
<path transform="translate(985,1533)" d="m0 0 4 2 5 5 4 7 9 14 3 3 4 7 14 21 6 10 11 17 14 22 7 12 7 15 5 11 1 4 3 1 5 10 5 7v2h2l10 25 4 9 3 12 7 12 1 6h5l3 4-1 3-3-4-3 4h-2l-12-20-13-21-15-26-17-32-11-22-10-19-15-27-15-25-12-19-14-23-2-5z" fill="#489470"/>
<path transform="translate(641,1309)" d="m0 0h44l16 1h26l22-1h56l16 1 49 2 1 1-1 13h-1l-1-8-4 1h-327l1-3h2v-2l11-2 17-1 27-1z" fill="#47946F"/>
<path transform="translate(807,363)" d="m0 0 127 1h410l20 1 10 2 8 5 3 2 10-4 11 1 12 3 11 4 7 4 4 6 4 2 5 1 1 3 4-3 5 1 11 9 10 11-2 1-24-14-34-14-15-4-24-3-22-2-2-1 2-5-4-1-6-1-56-1h-33l-228 1h-216l-14 1-3 5h-5l2-5 5-5z" fill="#669E83"/>
<path transform="translate(1650,128)" d="m0 0h18l5 3 9 5 5 5 7 3 10 5 13 5 13 7 3 3 7 4 1 3 4 2 5 5 9 3 4 3 6 3 11 8 5 3 9 13 5 5 6 10 4 7v6l4 5 4 9 2 10-4 1-5-2-4-5v-2l-4-2-3-5-2-7h-2l-5-7-5-5-5-6-2-1-3-7-4-8-6-3-11-8-9-6-4-4v-2l-5-1-2-2v-3l-5-1-7-3v-2l-10-5v-2l-6-2-5-3v-2l-6-2-5-4-2-3-9-3-10-5-13-5-5-3-2-1z" fill="#00562A"/>
<path transform="translate(1484,52)" d="m0 0h15l63 3 12 3 3 3v8 4l1 4 19 3v2h12l4 2-9-1 1 4-8 1-2 1-4-1-7 1v-2l-5 1-13-2-9-2-7-1-12-2-19-3-1-1h-6l-1-2-10-2-1 2-9-4-8-1-1-4 9-7 2-5-9-1z" fill="#228155"/>
<path transform="translate(70,1747)" d="m0 0 1 4-13 50-17 63-5 18-1 7-3 8h-2l-1 10-3 8-4 15-4 12h-2l-1 5-3 7h-2v3l-3 3 103-1h150l56-1 9 1 1 4h-77l-245-1 2-9 4-12 7-25 20-68 15-53 11-39 4-3z" fill="#93B8A6"/>
<path transform="translate(1323,1386)" d="m0 0 3 3 17 28 11 19 12 22 16 32 12 22 16 28 17 28 12 19 15 24 11 18v2l-9-3-7-8-4-7-3-3-6-11-14-23-11-18-10-16-7-11-3-7-12-21-13-21-7-12-6-11-8-16-5-9-3-6-2-6-4-7-6-19z" fill="#6FA189"/>
<path transform="translate(1566,545)" d="m0 0 2 4v2h2l1-2h2v3l4 2 2 5v19l-2 21-1 5-1 1v11l-1 13-2 16v17l2 3-3 9h3 1l-1 10-3 5h-3-4-3v6l-5 12-2 6-2 5-4 8-1 4-6 15-1 4h-2l-1 4h-2l-1 5-1 2h-2l-1 5-2 2-2 5-2 7-4 2-1 6-2 2-2 1-2 4h-2v2l-4 3h-2l2-5 12-22 8-16 11-26 12-36 12-42 6-28 4-28v-12l-2-7h-2l-2 6 1 3-4 6-6 5-3 3h-2l1-7 8-14 5-10 1-3v-11z" fill="#288359"/>
<path transform="translate(564,46)" d="m0 0 15 1h532l288 1 44 1 37 2-1 6-1 2-13-1-33-3-6-1v-2h-14l-34-1-266-1h-566v-1z" fill="#6EA188"/>
<path transform="translate(1032,1554)" d="m0 0h3l1 4 5 2 3 4v2h2l7 10 13 21 7 11 6 10 9 16 5 10 4 7 5 13 2 7-1 2-5-1-1-3-6-2-9-11-7-11-14-19-6-9v-3h-2l-6-10-10-18-7-16-2-5 1-9z" fill="#00562A"/>
<path transform="translate(1795,173)" d="m0 0 5 5 9 10 7 8 14 17 13 18 12 19 10 18 9 17 12 29 12 34 7 25 7 22 3 16 1 12 3 9 2 7 4 3 2 8-1 12h-1l-1-7-4-1v-2h-2l-1-9-1-3-4-1-2-6 1-5v-18l-3-7-5-17-3-7-4-13-3-7-3-15-4-8-5-18-3-6-5-16-3-14-6-10-3-2-3-5-3-6-2-3-2 2-7-8-3-5-2-7-5-8-5-4-8-11-5-6-10-8-14-14-1-4z" fill="#4C9673"/>
<path transform="translate(569,43)" d="m0 0h100l352 2 195 2v1h-637l-15-1-18 3-3 7-4 8-1-3 1-2-4-2-7-3 3-5 10-5 5-1z" fill="#9FBFB0"/>
<path transform="translate(1489,1672)" d="m0 0 3 3 14 25 14 24 14 25 14 24 13 24 20 35 13 22 17 28 1 2-5 5-3 1-6-10-12-24-10-19-10-15-4-9-10-19-17-28-4-8-8-13-11-21v-2h-2l-9-20-8-15-4-12z" fill="#72A38B"/>
<path transform="translate(1866,769)" d="m0 0 1 2-10 27-14 32-10 21-12 21-16 29-10 18-10 14-16 24-11 16-11 14-11 13-13 16-11 14-3 2 1-4 7-9 3-7 7-9 12-15 7-8 8-9 12-18 5-9 3-3h2l2-6 6-10 2-6 4-5 4-2 7-9 7-12 3-9 11-27 5-10 11-28 6-15 6-12 6-2 2-5 4-6 3-7z" fill="#689F84"/>
<path transform="translate(1706,1033)" d="m0 0 2 1-9 10-17 17-8 7-17 16-10 9-8 7-12 11-17 14-9 7-16 12-17 12-42 26-12 7-8 4-2-1 2-2 1-4h2l1-5 4-5 32-15 12-7 19-12 12-8 11-9 14-11 12-12 11-9 15-14 3-1v-2l11-7 7-7 10-8 10-10 5-3z" fill="#71A28A"/>
<path transform="translate(983,1531)" d="m0 0h7l6 3v3l3 1 6 10 7 10 5 8v2h2l8 14 5 8 6 10 10 16 15 25 10 17 8 16 6 10 13 23 9 19 5 11 2 8 2 1 3 7v4l2 1 3 8v2h2l5 11 8 20 4 8-1 2-8-16-7-16-5-9-5-1-4-10-5-8-2-9-3-9-4-7-5-14-2-4v-3h-2l-7-11-4-8-2-1-4-8-10-22-5-8-4-7-12-19-11-17-11-18-7-10-5-7-3-5-8-11-4-8-4-5v-2l-6-2-4 1v-2h2z" fill="#228155"/>
<path transform="translate(23,1954)" d="m0 0 291 1 12 1 1 1v5h8v1h-9l-1-4h-20l-54 1h-146l-99 1 2-4 1 2 10-3z" fill="#6DA087"/>
<path transform="translate(1267,1957)" d="m0 0h165l43 1 24 1 15 2v1l-167 1h-118l3-4 24-1z" fill="#A2C1B2"/>
<path transform="translate(1783,923)" d="m0 0h2l-2 5-7 13h-2l-1 3h-2l-2 5-7 12-9 12-9 10-10 12-7 9-8 11-3 7-6 7-1 4-5 3-8 8-5 3-11 11-10 8-8 7-5 3h-2v2l-8 7-12 11-11 9-12 12-2-1 27-27 8-6 12-12 7-5 5-6 8-7 10-11 7-7 4-7 2-3h2l2-6 6-5 1-3 3-1 4-9h3l2-4 3-1 2-4 1-3h2l1-4 5-6 5-2h4l2-4h2l2-5 3-7h2l2-5h2l1-7h2l4-8 2-1 1-3 4-3h3l2-5z" fill="#258257"/>
<path transform="translate(1303,1351)" d="m0 0 3 4 15 26 3 7 4 15 6 16 4 7 1 4 6 12 6 10 7 14 8 15 9 14 9 15 10 17-1 2-11-17-9-14-8-12-4-7-9-15v-2h-2l-6-11-13-22-11-19-5-10-8-15-6-11-2-8v-10l1-2h2z" fill="#48946F"/>
<path transform="translate(1444,1612)" d="m0 0 3 3 6 9 5 4 9 4 15 26 7 12 4 14 8 17 9 18v3h2l14 27 8 12 5 10 12 20 8 14 6 11v2h-2l-14-25-10-16-9-15-9-14-6-10-4-7-9-14-5-10-9-16-1-4h-2l-2-4v-3h-2l-5-10-4-9-3-9-2-7h-2l-7-10v-2h-2l-7-10-5-9z" fill="#489470"/>
<path transform="translate(939,362)" d="m0 0h168l251 1 21 2 30 5 18 5 12 5 9 5 9 4-5 5h-2l-3-3-6-1-5-6-3-3-8-4-13-4-12-2h-5l-10 4-4-2-1-2-8-4-8-1-20-1h-428l-103-1v-1z" fill="#228155"/>
<path transform="translate(1642,1058)" d="m0 0 1 2-6 9h-2l-1 3-4 2-3 4h-2v2l-4 4 1 3-1 1-1 11-3 6-7 2-3 1v-2l-7 3-13 10-5 5-11 7h-6l-1-3 2-6h2l2-4 9-9 11-8 7-6 11-9h2v-2l9-5 4-4 1-3 8-7 5-5z" fill="#00562A"/>
<path transform="translate(871,1331)" d="m0 0 4 2 3 3 6 11 13 24 7 11 20 34 10 18 6 9 2 5 3 3 7 12 4 8 4 10 2 7 6 11 1 4v9l-4-5-17-33-12-22-13-25-12-22-13-25-9-16-10-18-8-14z" fill="#76A68E"/>
<path transform="translate(190,1296)" d="m0 0h2l1 9-11 39-2 12-10 37-12 43-10 36-6 21h-2v3l-3 3-1 3h-2l4-16 10-37 15-54 24-88z" fill="#9CBFAE"/>
<path transform="translate(1538,460)" d="m0 0 5 5 9 12 1 3h-2l4 10 7 10 1 6 2 2-1 3 2 1 2 14-2 13h-2l-9-21-10-21-16-26-5-8h4l2-2 5 1h3zm-1 11m1 1 1 2z" fill="#258257"/>
<path transform="translate(982,1536)" d="m0 0 5 1 6 7 7 14 4 7 7 10 10 13 7 11 10 16 10 17 5 8 8 16 2 9 6 13v10l-3-3-16-32-10-19-15-27-15-25-12-19-14-23z" fill="#75A58D"/>
<path transform="translate(1136,48)" d="m0 0h263l44 1 37 2-1 6-1 2-13-1-33-3-6-1v-2h-14l-34-1-242-1z" fill="#73A48C"/>
<path transform="translate(862,1313)" d="m0 0h7l1 1v12h-1l-1-8-4 1h-321l1-2 43-1 4-1 9 1 22-1h41l40 1h118l29-1z" fill="#7FAB96"/>
<path transform="translate(1342,948)" d="m0 0h2l-1 9-9 6-14 6-32 16-17 5-14 2-16 3h-13v-1l16-4 28-11 26-10 30-13z" fill="#499470"/>
<path transform="translate(1930,514)" d="m0 0h2v8l-6 32-5 21-2-3h-11v-2l-3-1 2-17 3-17 7-8 6-8 5-4z" fill="#489470"/>
<path transform="translate(1873,747)" d="m0 0 1 4-6 17-4 5-3 7-4 7-3 3h-4l-3 9-4 9-12 29-6 15-4 8-9 22-4 10-6 11-9 11h-2l2-4 8-10 4-7 1-6 3-8h2l-1-4h2l1-7 2-7h2l-2-4 3-16 5-13 2-1 2-6 1-5 3-9 2 2 4-6h3v-5h3l1-4h2l1-7 5-4h2l2-6 8-10 3-3 3-11z" fill="#218054"/>
<path transform="translate(1367,1462)" d="m0 0 3 4 12 24 12 22 16 28 17 28 12 19 15 24 3 6h-6l-5-5-10-18-10-16-11-18-13-22-7-11-4-9-6-12-8-15-4-12-6-14z" fill="#98BBAA"/>
<path transform="translate(1364,366)" d="m0 0h8l9 5 2 2 2 1 10-4 11 1 12 3 11 4 7 4 4 6 4 2 5 1 1 3 4-3 5 1 11 9 10 11-2 1-24-14-34-14-15-4-33-4v-2h-2l-1-7-5-1z" fill="#4A9571"/>
<path transform="translate(1123,1774)" d="m0 0h2l8 14 10 25 13 19 12 20 10 17 9 14 8 17 3 5 2 5 6 12-1 9-2-2-8-16-16-30-9-16-14-25-15-27-14-26-7-12z" fill="#99BBAB"/>
<path transform="translate(1652,84)" d="m0 0 12 2 10 2 12 12 19 8 8 4-4 1 1 3-2 4-3-1-3-3-9-4-7-3-6-3-5-1-23-1-3-1v-2l-3-1 2-5 6-8z" fill="#499570"/>
<path transform="translate(1795,173)" d="m0 0 5 5 9 10 7 8 14 17 13 18 12 19 1 4-6-2v-2l-4-1-5-7-6-11-6-5-8-11-5-6-10-8-14-14-1-4z" fill="#72A48B"/>
<path transform="translate(871,1326)" d="m0 0 7 4 8 16 9 17 6 10 8 13 26 44 10 16 9 14 10 18 10 17 3 8-1 9-3 8-3-4-1-2-2-17-2-1-5-10-3-11-4-8-9-16v-2l-3-1-3-6-9-15-15-27-8-13-9-15-8-14-10-18-4-6-5-4z" fill="#47946F"/>
<path transform="translate(305,1958)" d="m0 0h16l4 1 1 4h-77l-139-1 1-3h149z" fill="#A5C3B5"/>
<path transform="translate(516,138)" d="m0 0h1v7l-4 16-8 27-5 20-4 15-5 19-2 6v8l-4 9-1 4-3 13v3l-3 9-1 11-5 15-3 3-1 6h-2v5l1 2h-2l1 3h-2l-2 9-3 3-2 6-1-4 10-36 3-11 2-11 2-7h2l2-10 13-47 8-28 14-50z" fill="#0F7143"/>
<path transform="translate(1279,1954)" d="m0 0h64l98 1 56 1 15 2 1 3-38-2-51-1h-157l-14 1-21 1-3 3-3-1 5-5 26-2z" fill="#6EA188"/>
<path transform="translate(16,1942)" d="m0 0h1v5l1 3 4 1 2 1h54l187 1 51 1 9 1v1h-39l-263-1-9 4h-5l1-5h2l1-5z" fill="#228155"/>
<path transform="translate(1812,883)" d="m0 0h2l-2 5-15 28-12 17-16 24-11 16-11 14-11 13-13 16-11 14-3 2 1-4 7-9 3-7 7-9 12-15 7-8 8-9 12-18 5-9 3-3h2l2-6 6-10 2-6 4-5 4-2 7-9 7-12z" fill="#4B9572"/>
<path transform="translate(806,50)" d="m0 0h73l46 1-2 2h-233l-56 1h-29l-42-1-16-1-2 5-4 2 5-8h52z" fill="#228155"/>
<path transform="translate(1450,870)" d="m0 0v3l-6 7h-2l-2 5-7 9-17 17-11 9-9 8-6 4h-2v2l-6 1-4-5-3-1 11-7 19-14 18-13 14-12z" fill="#97BAA9"/>
<path transform="translate(1576,59)" d="m0 0 14 6 3 3v2l9 3 25 6 9 2-1 5-1 1-11-1-14-3-12-1v-2h-8l-11-3-1-4-2-1 1-3z" fill="#6CA087"/>
<path transform="translate(1192,1888)" d="m0 0 4 4 20 35 6 11 6 9 3 7h18l15-1h119l90 1 28 1 12 2 1 4-2-1v-2l-15-1-56-1-98-1h-64l-39 2-9 1-3 4-4-1 2-10-2-6-7-10-12-23-13-22z" fill="#47946F"/>
<path transform="translate(1453,871)" d="m0 0 2 4-4 7-8 7-7 10-8 7-2 2h-3l-2 5-7 6h-3v2l-5 2-5 4-1 3 2 1-3 3 1 2h2l-1 3-4 4h-2v2l-4 2-5-1-2-2v-4h2l2-4 5-5 6-7 11-9 6-5 13-13 2-3h2l2-4 6-8 1-2h2l1-3 5-3z" fill="#055D31"/>
<path transform="translate(1566,545)" d="m0 0 2 4v2h2l1-2h2v3l4 2 2 5v19l-2 18-2 1-2-2-1-11-2-7h-2l-2 6 1 3-4 6-6 5-3 3h-2l1-7 8-14 5-10 1-3v-11z" fill="#248256"/>
<path transform="translate(1727,121)" d="m0 0 4 2 6 7 7 3 16 8 9 6 7 6-2 1-1 5-3 6h-3l-1-3h-2v-2l-4-2-7-10-9-7-9-2v-2h-6l-2-2z" fill="#93B8A6"/>
<path transform="translate(1540,1761)" d="m0 0 4 5 16 29 13 23 8 14 13 22 16 26-2 4-4 1-4-6-6-11-6-13-7-14-7-13-7-11-7-13-3-9-4-7-6-11-6-10z" fill="#9ABCAB"/>
<path transform="translate(2046,984)" d="m0 0h1v9l-1 2-2 18 2 1v13l-1 10-4 5-5 3-12 10h-2v2l-2-1 12-25 5-16 8-29z" fill="#93B7A6"/>
<path transform="translate(23,1954)" d="m0 0 280 1-2 2h-273l-12 2-4 2h-6l2-4 1 2 10-3z" fill="#47946F"/>
<path transform="translate(1679,1059)" d="m0 0 4 1-10 9-16 15-10 9-8 7-12 11-17 14-9 7-16 12-17 12-42 26h-2l2-4 4-4 35-20 8-6h2v-2l24-16 13-10 8-7 10-9 8-7 5-4 7-8 8-8 11-8z" fill="#A0C0B1"/>
<path transform="translate(1394,928)" d="m0 0 2 1-7 6-18 11-13 6-8 3-10 6-3-1 5-3 2-10 20-11 10-6 5-1 3 5h6v-2z" fill="#29845A"/>
<path transform="translate(1631,1916)" d="m0 0 4 5 10 21 4 13-4 4-7 2h-6l1-6-3-9v-26z" fill="#98BBAA"/>
<path transform="translate(1485,1191)" d="m0 0h7l4 7-41 20-6 2 3-9h2l2-5 15-9 10-5z" fill="#4A9571"/>
<path transform="translate(328,826)" d="m0 0 2 2-2 9-2 7-1 9-3 8-2 10h-2l-1 10-2 4v2h-2l-1 7-7 20-1 7-2 7v5h-2l-1 5-4 3 1-7 7-25 12-44 7-25 3-11h2z" fill="#0C6F41"/>
<path transform="translate(807,363)" d="m0 0 127 1h222v1l-157 1h-185l-12 1-6 7h-2l2-5 5-5z" fill="#47946F"/>
<path transform="translate(408,1666)" d="m0 0 1 4-8 29-4 13-4 16-8 29-5 18-9 33-7 24-7 25-11 37-5 16-1-4 13-45 4-14 7-24 7-25 11-39 10-36 13-48z" fill="#076B3C"/>
<path transform="translate(1628,1910)" d="m0 0 3 4v32l3 9-1 5-2 2h-117v-1l102-1 4-5 5-13 1-1 2-28z" fill="#649E82"/>
<path transform="translate(590,1315)" d="m0 0 10 1 22-1h41l38 1 2 2-53 1h-107l1-2 43-1z" fill="#6FA188"/>
<path transform="translate(1317,1254)" d="m0 0h12l6 2 2 3-21 6-19 3-7 3-9 7-2 1 2-5 4-4h2l1-4 12-7 11-3z" fill="#4A9571"/>
<path transform="translate(975,45)" d="m0 0h46l195 2v1h-222v-2h-19z" fill="#ACC8BA"/>
<path transform="translate(1670,88)" d="m0 0 5 1 11 11 19 8 8 4-4 1 1 3-2 4-3-1-3-3-9-4-7-3-12-6-1-7 1-5z" fill="#74A48D"/>
<path transform="translate(1796,174)" d="m0 0 5 5 13 15 12 14 8 10v2l-7-2-5-5-6-9-5-5-11-7-6-6 1-8z" fill="#94B8A6"/>
<path transform="translate(1342,948)" d="m0 0h2l-1 9-9 6-9 4-10 2-8 4h-3l-3-3-3-1 30-13z" fill="#6EA188"/>
<path transform="translate(532,1324)" d="m0 0h2l-3 9-11 34-4 14-3-3-4-1v-10h2v-5l1-2h2l2-6 5-8 5-11 3-7h2z" fill="#47946F"/>
<path transform="translate(1294,48)" d="m0 0h105l44 1 37 2v1l-12 1-3 2-20-1-14-1-16-2-29-1-92-1z" fill="#BCD3C8"/>
<path transform="translate(1559,55)" d="m0 0 12 2 5 2 1 2v8 4l1 4 19 3v1h-11l-19-4-5-2-1-5 1-4v-8l-3-1z" fill="#489470"/>
<path transform="translate(1706,1033)" d="m0 0 2 1-9 10-15 15-6 2-11 11-11 8-13 12-9 7-12 11-8 7-14 11h-3l8-7 10-8 11-11 11-9 15-14 3-1v-2l11-7 7-7 10-8 10-10 5-3z" fill="#47946F"/>
<path transform="translate(1596,1876)" d="m0 0 3 4 5 8v2l5-5h4l11 17 4 8-2 1-3-5-2 1 3 3-1 4-4-4-5-3-3-3v-2h-2l-3-5v-3l-5-4-5-11z" fill="#238155"/>
<path transform="translate(814,365)" d="m0 0h99l20 1-2 2h-115l-14 1-3 5-3-1 6-7z" fill="#6EA188"/>
<path transform="translate(1260,365)" d="m0 0h104v2l5 1 1 7h2v2l-13-1-2-1 2-5-4-1-6-1-56-1h-26l-7-1z" fill="#6EA188"/>
<path transform="translate(1406,1548)" d="m0 0 6 5 8 14 7 11 17 28 5 9 9 2 7 12v2l-9-3-7-8-4-7-3-3-6-11-14-23-11-18-5-8z" fill="#5D9B7D"/>
<path transform="translate(1513,438)" d="m0 0 7 4 12 11 5 5 1 4-7 1h-2l-2 1-5-3-7-9-2-2-1-9 1-1z" fill="#29845A"/>
<path transform="translate(546,51)" d="m0 0h147l-3 2-56 1h-29l-42-1-16-1-2 5-4 2z" fill="#218054"/>
<path transform="translate(1836,828)" d="m0 0h7l-2 6-8 17-12 21-6 11h-1l1-8 12-26 6-15z" fill="#98BAAA"/>
<path transform="translate(1591,67)" d="m0 0 2 1v2l9 3 25 6 9 2-1 5-1 1-7-1-20-5-10-2-5-2-1-6z" fill="#9ba"/>
<path transform="translate(140,1493)" d="m0 0 1 4-8 28-6 22h-2l-1 7h-2v-10l11-40 1-2h2l1-5 3-1z" fill="#92B9A6"/>
<path transform="translate(1544,480)" d="m0 0 4 5 3 3 1 5h2l8 16 3 8v16l-2 4-7-17-4-8v-2l6-1-9-18-3-5-2-3z" fill="#689F84"/>
<path transform="translate(1419,905)" d="m0 0 2 1-5 5-11 9-9 8-6 4h-2v2l-6 1-4-5-3-1 11-7 12-9 4 1-6 9-2 2 5-3 13-11z" fill="#71A38A"/>
<path transform="translate(1812,883)" d="m0 0h2l-2 5-15 28-12 17-12 18-1-3 8-17 4-6 2-6 4-5 4-2 7-9 7-12z" fill="#95B9A8"/>
<path transform="translate(1880,301)" d="m0 0 2 3 9 24 9 27 7 25 5 15 1 8h-2l-5-15-10-35-5-14-3-9-6-19-2-6z" fill="#78A790"/>
<path transform="translate(1425,1222)" d="m0 0 5 2v4l-15 6-23 11v-3l4-4h2l2-4 11-7z" fill="#4B9571"/>
<path transform="translate(1378,49)" d="m0 0 37 1 16 2 28 2h6l3-2h12l-2 7-13-1-33-3-6-1v-2h-14l-34-1z" fill="#689F84"/>
<path transform="translate(2046,984)" d="m0 0h1v9l-1 2-2 13h-2l-1 6-4 10-1 1-1 9-1 3v3h-2l-1 4-3 5v3l-4 3h-2v2l-2-1 12-25 5-16 8-29z" fill="#FDFDFD"/>
<path transform="translate(1930,514)" d="m0 0h2v8l-3 17h-1v-6l-8 2-4-1-2-1 2-5 7-9 5-4z" fill="#97BAA9"/>
<path transform="translate(1407,917)" d="m0 0 3 1-5 6-4 3-1 3 2 1-3 3 1 2h2l-1 3-4 4h-2v2l-4 2-5-1-2-2v-4h2l2-4 5-5 6-7z" fill="#025B2F"/>
<path transform="translate(1866,769)" d="m0 0 1 2-10 27-5 11h-3l-2-6h-2l-1 2 1-4 4-9 1-2 6-2 2-5 4-6 3-7z" fill="#4D9673"/>
<path transform="translate(807,363)" d="m0 0 127 1h21v1l-19 1h-122l-12 1-6 7h-2l2-5 5-5z" fill="#47946F"/>
<path transform="translate(110,1959)" d="m0 0m-5 0 5 1v2h-105v-1l14-1z" fill="#92B7A5"/>
<path transform="translate(1774,941)" d="m0 0 1 3-4 10-13 19-11 14-11 13-13 16-4 4 2-5 7-9 10-12 1-4 5-6 5-4 10-14 6-7 8-16z" fill="#72A48B"/>
<path transform="translate(1537,482)" d="m0 0 5 1 4 1 3 6 2 2 3 7 4 8v2l-7 1-8-16-6-10z" fill="#4B9571"/>
<path transform="translate(1280,976)" d="m0 0 3 1-5 8-9 3-20 3h-3v2h-9l4-2z" fill="#72A38B"/>
<path transform="translate(1565,1818)" d="m0 0 4 4 7 11 3 2 8 16 7 15 6 10 4 8 4-1h4l-6 7h-2l-6-10-12-24-10-19-10-15z" fill="#569978"/>
<path transform="translate(1648,1086)" d="m0 0m-1 1m-1 1m-1 1m-1 1m-1 1v3l-20 18-8 7-12 9-14 10-11 7h-4l4-4 11-7 6-5 5-2 16-13 12-11 8-7z" fill="#6EA188"/>
<path transform="translate(1565,571)" d="m0 0 3 3 3-2 1 1v9h-1l-1-5h-2l-2 6 1 3-4 6-6 5-3 3h-2l1-7 8-14z" fill="#A4C3B4"/>
<path transform="translate(862,1313)" d="m0 0h7l1 1v12h-1l-1-8-4 1h-31l-12-1 1-2 28-1z" fill="#6EA188"/>
<path transform="translate(1795,173)" d="m0 0h1l-1 13 9 8 10 6 6 9 4 5 3 5 6 8-1 2-9-11-7-9-10-8-14-14-1-4z" fill="#4B9571"/>
<path transform="translate(1572,1145)" d="m0 0 2 1-11 8-10 6-12 6-15 8-5 3-7 2-2 10-6 4-2-1 2-2 1-4h2l1-5 4-5 32-15 12-7z" fill="#47946F"/>
<path transform="translate(1478,420)" d="m0 0h7l11 7 10 9 5 2v-2l4 1-1 3 1 2h-2v6l-7-6-11-10-17-11z" fill="#A3C2B3"/>
<path transform="translate(1573,1148)" d="m0 0m-1 1m-1 1m-1 1m-2 1h2l-2 4-42 26h-2l2-4 4-4 35-20z" fill="#9DBEAE"/>
<path transform="translate(1455,391)" d="m0 0 5 2 10 8 10 11-2 1-24-14-3-2z" fill="#76A68E"/>
<path transform="translate(1529,461)" d="m0 0 5 5 4 5 5 5 1 9-3-2-6-2-10-16-1-2h4z" fill="#378A63"/>
<path transform="translate(1123,1774)" d="m0 0h2l8 14 8 20v3h-2l-12-22-7-12z" fill="#99BBAB"/>
<path transform="translate(30,1897)" d="m0 0h2l-1 8-5 15-4 18v7l4 4 10 1 1 2-14 1-5-3v-2l-2-1 5-17 6-22 2-7z" fill="#157447"/>
<path transform="translate(1913,532)" d="m0 0 4 2 11-1v11l-1 5h-1v-5h-9l-5-4-1-6z" fill="#6EA188"/>
<path transform="translate(1345,365)" d="m0 0h19v2l5 1 1 7h2v2l-13-1-2-1 2-5-4-1-6-1v-2z" fill="#6BA086"/>
<path transform="translate(1841,242)" d="m0 0 4 4 2 3 3 1v2l4 1 4 2 16 30v2l-3-1-4-10-5-5-4-6-3-6-2-3-2 2-7-8-3-5z" fill="#4F9774"/>
<path transform="translate(1481,1197)" d="m0 0 3 1 2 5-25 12-2-1 7-8 12-8z" fill="#9ABCAB"/>
<path transform="translate(459,350)" d="m0 0 1 2v14l-3 6-1 7-2 2-2 1 1 3-3-1 2-16 3-11h2l1-6z" fill="#0A6D3F"/>
<path transform="translate(1483,1193)" d="m0 0 5 1 2 7-6 1-1-4-6 2-11 7-6 7-3 3-1-3 6-8 11-8z" fill="#6FA188"/>
<path transform="translate(1684,100)" d="m0 0 10 3 15 7-2 5-5-1-18-9z" fill="#FDFDFD"/>
<path transform="translate(1762,143)" d="m0 0 4 2 6 5-2 10-4 1-6-7z" fill="#FDFDFD"/>
<path transform="translate(541,45)" d="m0 0h5l-4 11-3 4-4-2-7-3 3-5z" fill="#FDFDFD"/>
<path transform="translate(1567,416)" d="m0 0 2 2 3 11h2v2h2l4 9v5h2l1 4 2 2v6l-5-5-2-5-1-7h-2v-2h-2l-4-8-2-5z" fill="#218054"/>
<path transform="translate(1679,1059)" d="m0 0 4 1-10 9-16 15-9 8-4-1 14-14 11-8z" fill="#70A28A"/>
<path transform="translate(1729,123)" d="m0 0h2l6 7 7 3 6 3-1 2-18-2-3-2v-8z" fill="#FDFDFD"/>
<path transform="translate(121,1547)" d="m0 0h1l1 11-7 23-3 4h-2l4-17z" fill="#D2E1DA"/>
<path transform="translate(1342,948)" d="m0 0h2l-1 6-5 5-6 3h-5l-1-2-3-2 16-8z" fill="#FDFDFD"/>
<path transform="translate(1446,1614)" d="m0 0 5 2 7 1 7 12v2l-9-3-7-8z" fill="#71A38B"/>
<path transform="translate(516,138)" d="m0 0h1v7l-4 16-8 27-4 14-2 1 1-7 12-43z" fill="#137547"/>
<path transform="translate(1787,920)" d="m0 0 4 4-18 27-1-3 8-17z" fill="#FDFDFD"/>
<path transform="translate(619,997)" d="m0 0h87v1h-86l1 3-5 1h-7l2-2z" fill="#47946F"/>
<path transform="translate(500,202)" d="m0 0 1 3-5 18-5 19-4 6-1-3 12-42z" fill="#107244"/>
<path transform="translate(73,1740)" d="m0 0h1v8l-3 9-5 22-4 13-3 9-1-4 9-34z" fill="#107245"/>
<path transform="translate(1568,558)" d="m0 0 1 4 4 1 1 3v28h-1l-2-21-3 2-2-2 1-7z" fill="#539977"/>
<path transform="translate(1628,1913)" d="m0 0 1 4-2 24-3 5-3 9-5 6h-6l3-2 4-4 7-15 3-26z" fill="#228155"/>
<path transform="translate(16,1942)" d="m0 0h1v5l1 3 4 1 2 3-5 3-5 2h-5l1-5h2l1-5z" fill="#288459"/>
<path transform="translate(1423,1225)" d="m0 0 4 2v2l-16 7-10 4 2-4 14-9z" fill="#7BA992"/>
<path transform="translate(305,908)" d="m0 0 1 2-1 8-3 8v7h-2l-1 5-4 3 1-7 7-25z" fill="#107245"/>
<path transform="translate(1123,1769)" d="m0 0 3 3v2h2l7 14 6 14v2l-3-1-8-19-5-8v-2l-5 2v-3z" fill="#5F9C7E"/>
<path transform="translate(1120,1634)" d="m0 0 4 2 3 2v7l-2 3 5 2 2 4v6l-3 1-2-9h-3l-1-7 1-3-4-1 1-5z" fill="#218054"/>
<path transform="translate(532,1324)" d="m0 0h2l-3 9-11 34-2 8h-1v-8l6-19 7-20z" fill="#7DAA94"/>
<path transform="translate(1600,1129)" d="m0 0m-1 1 1 3-18 13-11 8v-3l4-5z" fill="#A2C1B2"/>
<path transform="translate(1735,996)" d="m0 0v3l-9 10-6 9-3 6-7 8-1-3 8-10 3-7 7-9z" fill="#5C9B7C"/>
<path transform="translate(1525,449)" d="m0 0 4 1 6 5 3 4v3l-7 1-7-11-1-2z" fill="#0C6F40"/>
<path transform="translate(1747,142)" d="m0 0 5 2 6 7 2 4 6 5h3l3-9 4 2-2 1-1 5-3 6h-3l-1-3h-2v-2l-4-2-7-10-6-5z" fill="#75A78F"/>
<path transform="translate(1551,480)" d="m0 0h3l13 26-1 2-4-1-1-7-7-10z" fill="#127245"/>
<path transform="translate(1459,392)" d="m0 0 6 2 10 7 9 12 2 4-6-3-8-10-10-9z" fill="#4A9571"/>
<path transform="translate(1641,1089)" d="m0 0m-1 1m-1 1m-1 1m-1 1m-1 1v3l-14 13-8 7-14 11h-3l8-7 10-8 11-11z" fill="#47946F"/>
<path transform="translate(1397,373)" d="m0 0h8v2h2l2 6-20-2 2-2 5-3z" fill="#71A38A"/>
<path transform="translate(1229,1849)" d="m0 0 9 4 2 8 4 2v8l1 5-3-2-2-7-4-6-2-6-3-1z" fill="#228155"/>
<path transform="translate(1680,105)" d="m0 0 10 2 17 8 1-4 5 1-4 1 1 3-2 4-3-1-3-3-9-4-7-3-6-3z" fill="#6BA388"/>
<path transform="translate(1627,1930)" d="m0 0h1v13l-2 4 2 3-1 5-4 2-4 4-3-1 4-5 5-13 1-1z" fill="#47946F"/>
<path transform="translate(1800,179)" d="m0 0 5 5 8 9-2 1-9-4-4-3 1-5z" fill="#FDFDFD"/>
<path transform="translate(1325,1257)" d="m0 0h9l3 2-21 6h-7v-1l8-2v-2z" fill="#7EAB95"/>
<path transform="translate(1572,1145)" d="m0 0 2 1-11 8-10 6-22 11-2-1 6-4 17-8 14-9z" fill="#47946F"/>
<path transform="translate(1748,983)" d="m0 0v3l-12 14-13 16-4 4 2-5 7-9 10-12 7-8z" fill="#A4C2B4"/>
<path transform="translate(1593,1866)" d="m0 0 3 3 7 14 4 1 4-2 1 2-5 5-3 1-6-10-5-10z" fill="#5A9A7B"/>
<path transform="translate(1574,1145)" d="m0 0 1 3-10 7-16 9-7 4-2-1 10-7 8-4 15-10z" fill="#6EA188"/>
<path transform="translate(488,245)" d="m0 0 2 1-1 5-1 7-3 7-4 2 2-11 3-8z" fill="#0B6E40"/>
<path transform="translate(1338,963)" d="m0 0h6l2 1-1 4-9 3-2 1-3-2 1-2 2 1-1-3z" fill="#00562A"/>
<path transform="translate(1563,506)" d="m0 0 2 2-1 3 2 1 2 14-2 13h-2v-22l-3-10z" fill="#238155"/>
<path transform="translate(1904,373)" d="m0 0 2 3 6 19 1 8h-2l-5-15-3-12z" fill="#7EAB95"/>
<path transform="translate(1596,1876)" d="m0 0 3 4 5 8v2l5-5h4l-2 6-5 3-5-4-5-11z" fill="#1E7D51"/>
<path transform="translate(1517,449)" d="m0 0 4 2 4 5 3 6-1 2-5-3-6-8z" fill="#0E6F41"/>
<path transform="translate(1706,1033)" d="m0 0 2 1-9 10-15 15v-3l11-12z" fill="#85AF9A"/>
<path transform="translate(1478,420)" d="m0 0h7l11 7 3 4-4-1h-3l-14-9z" fill="#8CB4A0"/>
<path transform="translate(1719,120)" d="m0 0 5 1-1 7-1 2h-5l-2-6z" fill="#649D81"/>
<path transform="translate(1477,52)" d="m0 0h3l-2 7-13-1-20-2v-1h10l12 1 8-1z" fill="#47946F"/>
<path transform="translate(1593,1854)" d="m0 0 4 5 12 20-3 1-3-3-3-7-7-13z" fill="#FDFDFD"/>
<path transform="translate(192,1305)" d="m0 0 1 4-2 11h-2l-1 8-6 21h-1l1-8z" fill="#559777"/>
<path transform="translate(1595,1129)" d="m0 0 3 1-5 5-12 8-4 3-3-1 4-4 11-7z" fill="#5F9C7E"/>
<path transform="translate(450,376)" d="m0 0h1v8l1 5-2 5h-2l1 4h-3l-2 2 2-9z" fill="#107244"/>
<path transform="translate(1740,140)" d="m0 0 5 1 10 8v3l-5-2-3-3-8-4z" fill="#0C6F40"/>
<path transform="translate(1722,117)" d="m0 0 5 3v13l-1-2-7 1-1-2h4l1-9-3-1v-2z" fill="#4E9673"/>
<path transform="translate(1545,486)" d="m0 0h2l3 5 6 13-5 1-4-13-2-3z" fill="#258257"/>
<path transform="translate(1618,78)" d="m0 0 9 1 9 2-3 5-14-5z" fill="#FDFDFD"/>
<path transform="translate(1261,988)" d="m0 0m-3 1h3v2l-20 4h-13v-1l5-1h13v-2z" fill="#5E9D7F"/>
<path transform="translate(1919,438)" d="m0 0 6 4 2 8v5l-1-4h-4l-2-5z" fill="#95B9A7"/>
<path transform="translate(119,1565)" d="m0 0 1 3-4 13-3 4h-2l3-13 3-1 1-5z" fill="#BED3C9"/>
<path transform="translate(1406,1548)" d="m0 0 6 5 8 14v4l-4-5-10-16z" fill="#5F9C7E"/>
<path transform="translate(1383,924)" d="m0 0h2l1 8 2 2-6 1-4-5-3-1z" fill="#4D9673"/>
<path transform="translate(1246,1877)" d="m0 0h7l2 10-7-2-2-3z" fill="#228155"/>
<path transform="translate(1419,905)" d="m0 0 2 1-5 5-11 9-9 8v-3l10-9 11-9z" fill="#5F9C7E"/>
<path transform="translate(1468,52)" d="m0 0h9l-2 4-9 1-11-1v-2h10z" fill="#6EA188"/>
<path transform="translate(1172,998)" d="m0 0h17v2l-13 2h-5z" fill="#076B3C"/>
<path transform="translate(1259,984)" d="m0 0 2 1-6 5-9 1v2h-9l4-2z" fill="#A7C5B6"/>
<path transform="translate(1342,954)" d="m0 0 1 3-9 6-11 1-2-5h5l1 3 9-3 5-3z" fill="#8BB39F"/>
<path transform="translate(1828,855)" d="m0 0 2 1-10 18-4 5 1-5 8-16z" fill="#FDFDFD"/>
<path transform="translate(1486,1191)" d="m0 0h6l4 7-4 2h-3l-1-5-3-3z" fill="#4C9673"/>
<path transform="translate(1808,888)" d="m0 0 1 3-7 12-9 11h-2l2-4 8-10z" fill="#5C9B7C"/>
<path transform="translate(1679,1059)" d="m0 0 4 1-10 9-8 7v-3z" fill="#87B19D"/>
<path transform="translate(313,1955)" d="m0 0 13 1 1 1v5h8v1h-9l-1-4-9-1-5-1z" fill="#569978"/>
<path transform="translate(807,363)" d="m0 0h5l1 2-2 1-9 1-6 7h-2l2-5 5-5z" fill="#368B63"/>
<path transform="translate(500,202)" d="m0 0 1 3-5 18h-2l1-9 3-11z" fill="#0E7143"/>
<path transform="translate(1801,193)" d="m0 0 5 2 9 6 4 6-1 2-5-5-11-9z" fill="#6EA188"/>
<path transform="translate(1513,1179)" d="m0 0 1 2-3 9-5 3-2-1 2-2 1-4h2l1-4z" fill="#4E9673"/>
<path transform="translate(1918,445)" d="m0 0 3 1 1 5h4v11h-1l-1-7-4-1v-2h-2z" fill="#569979"/>
<path transform="translate(64,1774)" d="m0 0 2 3-3 11-3 12-2 1 1-7z" fill="#147648"/>
<path transform="translate(1540,1761)" d="m0 0 4 5 9 16h-3l-9-15z" fill="#A4C3B4"/>
<path transform="translate(1148,1692)" d="m0 0 2 1v2h2l1 7 4 1-1 3-5-1-2-3-2-9z" fill="#228155"/>
<path transform="translate(1580,1847)" d="m0 0h2l12 23-1 2-9-16v-3h-2z" fill="#228155"/>
<path transform="translate(1771,944)" d="m0 0 1 3-8 15-4 3 1-4z" fill="#599A7A"/>
<path transform="translate(1820,202)" d="m0 0 5 5 6 7-1 2-9-6z" fill="#FDFDFD"/>
<path transform="translate(1727,121)" d="m0 0 2 1v12l12 3v2h-6v-2h-6l-2-2z" fill="#82AE99"/>
<path transform="translate(1679,94)" d="m0 0 5 5 1 7-5-2-1-1z" fill="#99BBAB"/>
<path transform="translate(1511,436)" d="m0 0 4 1-1 3 1 2h-2v6l-3-2-2-6-2-3 5 1z" fill="#6DA389"/>
<path transform="translate(1644,1092)" d="m0 0 3 1-8 7-10 9v-3l11-11z" fill="#9CBDAD"/>
<path transform="translate(1774,941)" d="m0 0 1 3-4 10-7 10v-3l8-17z" fill="#A4C2B4"/>
<path transform="translate(300,927)" d="m0 0 2 2v4h-2l-1 5-4 3 1-7 1-4h2z" fill="#0E7143"/>
<path transform="translate(1930,514)" d="m0 0h2v8l-1-4-9 5-2 1 2-4 6-5z" fill="#FDFDFD"/>
<path transform="translate(771,428)" d="m0 0 1 4-4 16h-1l-1-10z" fill="#569A79"/>
<path transform="translate(1708,111)" d="m0 0 5 1-4 1 1 3-2 4-3-1-3-3-3-2 8 1z" fill="#619F81"/>
<path transform="translate(1549,503)" d="m0 0h2v2l6-1 1 5-7 1z" fill="#4D9673"/>
<path transform="translate(1800,898)" d="m0 0h2l-2 4-6 8-5 5-1-2h2l2-4z" fill="#218054"/>
<path transform="translate(1873,747)" d="m0 0 1 4-6 17-2-3 3-7 3-9z" fill="#378B64"/>
<path transform="translate(1693,1044)" d="m0 0 2 1-7 7-5 7-4-1z" fill="#4F9774"/>
<path transform="translate(1567,566)" d="m0 0h4l1 7h-2l-2 2-2-2z" fill="#6FA289"/>
<path transform="translate(1628,1910)" d="m0 0 3 4-1 12-2 4z" fill="#5A9A7B"/>
<path transform="translate(1719,1016)" d="m0 0 1 2-3 6-7 8-1-3 8-10z" fill="#7BA993"/>
<path transform="translate(1544,480)" d="m0 0 4 5 3 3 1 5h2v4l-3-1-2-5-3-5-2-3z" fill="#82AE99"/>
<path transform="translate(1537,483)" d="m0 0 5 2 4 9-1 3-8-13z" fill="#7BA993"/>
<path transform="translate(1795,173)" d="m0 0h1l-1 13 3 4-4-1-3-4 3-9z" fill="#5B9A7C"/>
<path transform="translate(1593,1866)" d="m0 0 3 3 5 10-1 3-3-4-4-8z" fill="#5F9C7E"/>
<path transform="translate(1124,1782)" d="m0 0h2l6 10 2 5-1 3-9-16z" fill="#FDFDFD"/>
<path transform="translate(67,1741)" d="m0 0h1l1 9-3 5h-2l2-10z" fill="#FDFDFD"/>
<path transform="translate(1120,1634)" d="m0 0 4 2 3 2-1 4h-6l1-6z" fill="#1E7D51"/>
<path transform="translate(1420,1570)" d="m0 0 3 1 6 10-1 2-5-5-3-5z" fill="#619C80"/>
<path transform="translate(863,1316)" d="m0 0 5 1-4 2h-22v-1l17-1z" fill="#9EBFAF"/>
<path transform="translate(1812,883)" d="m0 0h2l-2 5-8 15-1-3z" fill="#B3CDC0"/>
<path transform="translate(1811,877)" d="m0 0h2l-1 5-2 6h-2l-1 3-2-2 4-10h2z" fill="#238155"/>
<path transform="translate(1123,1769)" d="m0 0 3 3 3 6-1 2-3-4v-2l-5 2v-3z" fill="#6EA188"/>
<path transform="translate(1455,864)" d="m0 0 2 4-5 5-5 4 2-4 5-8z" fill="#20754C"/>
<path transform="translate(1556,518)" d="m0 0 4 2 3 8v6l-2-3-5-11z" fill="#A1C1B1"/>
<path transform="translate(619,997)" d="m0 0h6v1h-5l1 3-5 1h-7l2-2z" fill="#619E81"/>
<path transform="translate(1762,963)" d="m0 0 1 3-7 9-2-2 7-9z" fill="#7DAA94"/>
<path transform="translate(1457,862)" d="m0 0 6 1 1 3-6 2-2-1z" fill="#055C30"/>
<path transform="translate(1879,630)" d="m0 0 2 1-1 9-2 2v-2l-3-1 2-7z" fill="#218054"/>
<path transform="translate(1585,1852)" d="m0 0 4 3 4 8v5l-3-4-5-9z" fill="#599A7A"/>
<path transform="translate(1595,1129)" d="m0 0 3 1-5 5-4 3-3-1 4-4z" fill="#5B9A7C"/>
<path transform="translate(1720,121)" d="m0 0h2v7l-4 1-1-5z" fill="#A9C6B8"/>
<path transform="translate(73,1740)" d="m0 0h1v8l-4 10-1-3z" fill="#157749"/>
<path transform="translate(1659,1079)" d="m0 0 2 1-13 12v-3l8-8z" fill="#A7C5B6"/>
<path transform="translate(1715,1020)" d="m0 0v3l-5 6-1 4-5 2 2-4 8-10z" fill="#4C9672"/>
<path transform="translate(502,188)" d="m0 0h2l-1 8-3 7-1-4z" fill="#107345"/>
<path transform="translate(1773,152)" d="m0 0 3 1-2 1-1 5-3 6h-3l-1-3 4-1z" fill="#5B9A7C"/>
<path transform="translate(1210,1819)" d="m0 0 5 5 1 5-4-2v-3h-2l-1-4z" fill="#228155"/>
<path transform="translate(1127,1774)" d="m0 0 4 5 3 9h-2l-4-8z" fill="#58997A"/>
<path transform="translate(1142,1683)" d="m0 0 3 1v3l5 1v3l-5-1-3-2z" fill="#218054"/>
<path transform="translate(1440,1603)" d="m0 0 3 1 4 8-1 2-4-4-2-4z" fill="#619C80"/>
<path transform="translate(1600,1129)" d="m0 0m-1 1 1 3-10 7v-3z" fill="#A4C3B4"/>
<path transform="translate(1619,89)" d="m0 0h6l1 3-1 3-5-1z" fill="#228155"/>
<path transform="translate(77,1726)" d="m0 0 2 3-2 9-1 2h-2l2-10z" fill="#127446"/>
<path transform="translate(81,1717)" d="m0 0 1 4-2 8h-2v-7z" fill="#0D7042"/>
<path transform="translate(1921,440)" d="m0 0 4 2 1 6-4-1z" fill="#FDFDFD"/>
<path transform="translate(1141,1652)" d="m0 0 3 1-1 4h2l-1 4-1-3-4-1z" fill="#228155"/>
<path transform="translate(1406,1548)" d="m0 0 6 5 2 3-1 4-4-5-3-5z" fill="#599A7B"/>
<path transform="translate(1478,838)" d="m0 0v3l-3 5-6 4 2-4z" fill="#B2CFC1"/>
<path transform="translate(526,64)" d="m0 0 2 1-1 5-4 1v-5z" fill="#77A68F"/>
<path transform="translate(1259,984)" d="m0 0 2 1-6 5-4-1 3-3z" fill="#BBD1C6"/>
<path transform="translate(1876,643)" d="m0 0h2v2h-2l1 5-3 1-1 2v-6z" fill="#228155"/>
<path transform="translate(512,159)" d="m0 0 1 2-4 13h-1l1-10z" fill="#0F7143"/>
<path transform="translate(1420,391)" d="m0 0 5 1 5 2-4 1-6-3z" fill="#9ba"/>
<path transform="translate(1415,392)" d="m0 0 4 2-4-1z" fill="#BCD3C8"/>
<path transform="translate(2019,1057)" d="m0 0" fill="#FDFDFD"/>
<path transform="translate(2047,1009)" d="m0 0" fill="#92B7A5"/>
<path transform="translate(1481,419)" d="m0 0 2 1z" fill="#92B7A5"/>
<path transform="translate(1476,419)" d="m0 0 2 1z" fill="#FDFDFD"/>
<path transform="translate(1479,418)" d="m0 0" fill="#FDFDFD"/>
<path transform="translate(1475,418)" d="m0 0" fill="#FDFDFD"/>
<path transform="translate(1478,417)" d="m0 0" fill="#FDFDFD"/>
<path transform="translate(1430,395)" d="m0 0" fill="#92B7A5"/>
<path transform="translate(1420,394)" d="m0 0" fill="#FDFDFD"/>
</svg>
